<svg xmlns="http://www.w3.org/2000/svg" viewBox="0 0 440 319.66"><title>fff2</title><path d="M256.74,581.72l-53.88,0-40.18,0h-1.34c-4.39,0-8.94,0-13.53-.25a72.76,72.76,0,0,1-48-22.25c-13.19-13.5-20.53-30.78-20.66-48.65-0.43-58.51-.43-118,0-176.68A71.73,71.73,0,0,1,100.12,284a70.48,70.48,0,0,1,49.58-21.54c42-.52,84.58-0.43,125.81-0.34q25.93,0.05,51.85.06h0c0.84,0,1.57.06,2.15,0.1l0.48,0c35.45,2.13,65.33,31.26,68,66.32,0.62,8,.69,16,0.69,23.88l23-21.74q30.09-28.47,60.19-56.94c6.82-6.45,13.69-9,20.41-7.73s11.92,6.17,15.69,14.46l0.9,2V552.12l-1,2c-2,4.12-6.05,12.69-17,14.1-9.67,1.25-15.88-4.53-18.87-7.31q-41.62-38.7-83.28-77.35c0,6.61,0,13.07-.08,19.56a97.1,97.1,0,0,1-1.32,17.55c-7,36.37-36.92,60.86-74.52,60.94C300.91,581.7,278.76,581.72,256.74,581.72Zm-95.4-20h1.35l40.19,0c39.31,0,80,0,119.94,0,28.17-.06,49.73-17.61,54.92-44.71a80.11,80.11,0,0,0,1-14c0.11-9.58.09-19.15,0.07-29.28,0-4.16,0-8.39,0-12.75V438.8l16.6,14.6,2.28,2c1.31,1.14,2.44,2.12,3.56,3.16q47.26,43.86,94.49,87.75a13.68,13.68,0,0,0,2.6,2.1,7.94,7.94,0,0,0,.59-0.94V287.09c-0.21-.35-0.39-0.64-0.55-0.86a17,17,0,0,0-2.7,2.15l-60.18,56.93L400.84,378c-0.92.87-1.87,1.73-3.05,2.81l-17.67,16.21-1.06-21.26c0-.85-0.09-1.61-0.13-2.3-0.08-1.46-.16-2.72-0.18-4.07-0.06-4.31-.05-8.66,0-12.87,0-9.13,0-17.76-.62-26.39-1.91-24.89-24-46.37-49.28-47.89l-0.82-.06c-0.21,0-.42,0-0.62,0q-25.94,0-51.9-.07c-41.15-.08-83.71-0.17-125.52.34-27.29.34-50.52,23.94-50.73,51.54-0.44,58.63-.45,118,0,176.38,0.19,26.21,23,49.6,49.72,51.08C152.95,561.68,157,561.68,161.33,561.68Z" transform="translate(-78.87 -262.05)"/></svg>