<svg xmlns="http://www.w3.org/2000/svg" viewBox="0 0 53.96 47.25"><title>camera</title><path d="M33.79,47.25H7.29A7.3,7.3,0,0,1,0,40V30.31A7.3,7.3,0,0,1,7.29,23H33.79a7.3,7.3,0,0,1,7.29,7.29V40A7.3,7.3,0,0,1,33.79,47.25ZM7.29,25A5.3,5.3,0,0,0,2,30.31V40a5.3,5.3,0,0,0,5.29,5.29H33.79A5.3,5.3,0,0,0,39.08,40V30.31A5.3,5.3,0,0,0,33.79,25H7.29Z" transform="translate(0)"/><path d="M10.83,23.75A10.63,10.63,0,1,1,21.46,13.12,10.64,10.64,0,0,1,10.83,23.75Zm0-19.26a8.63,8.63,0,1,0,8.63,8.63A8.64,8.64,0,0,0,10.83,4.49Z" transform="translate(0)"/><path d="M32.72,23.75A11.88,11.88,0,1,1,44.6,11.88,11.89,11.89,0,0,1,32.72,23.75ZM32.72,2a9.88,9.88,0,1,0,9.88,9.88A9.89,9.89,0,0,0,32.72,2Z" transform="translate(0)"/><path d="M50.88,46.36A3.06,3.06,0,0,1,49,45.68L39.46,38a1,1,0,0,1-.37-0.78V30.31a1,1,0,0,1,.46-0.84l9.67-6.24A3.08,3.08,0,0,1,54,25.81V43.28a3.05,3.05,0,0,1-1.75,2.78A3.09,3.09,0,0,1,50.88,46.36Zm-9.79-9.59,9.12,7.35A1.08,1.08,0,0,0,52,43.28V25.81a1.08,1.08,0,0,0-1.66-.91l-9.21,5.94v5.92Z" transform="translate(0)"/></svg>