<svg xmlns="http://www.w3.org/2000/svg" viewBox="0 0 41.58 40.29"><title>film</title><path d="M41.58,40.29H0V0H41.58V40.29ZM2,38.29H39.58V2H2V38.29Z" transform="translate(0 0)"/><path d="M8.33,8.24H0V0.91H8.33V8.24ZM2,6.24H6.33V2.91H2V6.24Z" transform="translate(0 0)"/><path d="M8.33,13.57H0V6.24H8.33v7.33ZM2,11.57H6.33V8.24H2v3.33Z" transform="translate(0 0)"/><path d="M8.33,18.91H0V11.57H8.33v7.33ZM2,16.91H6.33V13.57H2v3.33Z" transform="translate(0 0)"/><path d="M8.33,24.24H0V16.91H8.33v7.33ZM2,22.24H6.33V18.91H2v3.33Z" transform="translate(0 0)"/><path d="M8.33,29.57H0V22.24H8.33v7.33ZM2,27.57H6.33V24.24H2v3.33Z" transform="translate(0 0)"/><path d="M8.33,34.91H0V27.57H8.33v7.33ZM2,32.91H6.33V29.57H2v3.33Z" transform="translate(0 0)"/><path d="M8.33,40.24H0V32.91H8.33v7.33ZM2,38.24H6.33V34.91H2v3.33Z" transform="translate(0 0)"/><path d="M41.58,8.24H33.25V0.91h8.33V8.24Zm-6.33-2h4.33V2.91H35.25V6.24Z" transform="translate(0 0)"/><path d="M41.58,13.57H33.25V6.24h8.33v7.33Zm-6.33-2h4.33V8.24H35.25v3.33Z" transform="translate(0 0)"/><path d="M41.58,18.91H33.25V11.57h8.33v7.33Zm-6.33-2h4.33V13.57H35.25v3.33Z" transform="translate(0 0)"/><path d="M41.58,24.24H33.25V16.91h8.33v7.33Zm-6.33-2h4.33V18.91H35.25v3.33Z" transform="translate(0 0)"/><path d="M41.58,29.57H33.25V22.24h8.33v7.33Zm-6.33-2h4.33V24.24H35.25v3.33Z" transform="translate(0 0)"/><path d="M41.58,34.91H33.25V27.57h8.33v7.33Zm-6.33-2h4.33V29.57H35.25v3.33Z" transform="translate(0 0)"/><path d="M41.58,40.24H33.25V32.91h8.33v7.33Zm-6.33-2h4.33V34.91H35.25v3.33Z" transform="translate(0 0)"/><rect x="1" y="22.15" width="39.58" height="2"/></svg>