<svg xmlns="http://www.w3.org/2000/svg" viewBox="0 0 498.29 406"><title>hand</title><path d="M339,218.89h9c4.52,1.47,9.24,2.5,13.52,4.49,15.56,7.2,24.24,20.29,29.46,36,7.11,21.37,6.5,43.24,3.51,65.17-1,7.36-2.49,14.65-3.85,22.53h5.87c25.8,0,51.61-.08,77.41,0,11.14,0.05,22.31,0,33.41.88,22.28,1.67,35.26,13.45,39.81,35.23a7.3,7.3,0,0,0,.85,1.69v21l-7.91,20.88c11.37,19.18,7.54,43.64-4.76,58.34-2.44,2.92-2.76,5.24-2.07,8.87,4.59,24.24-.53,45.23-21.21,60.81-1.35,1-2.1,3.6-2.13,5.47-0.41,29.47-19.85,54.41-48.38,61.66-4.79,1.22-9.7,2-14.55,3H261c-9.16-2.37-18-5.18-25.08-12.08-10.24-10-23-10.45-37-9.38,0,4.37,1,8.86-.3,12.5-1.26,3.45-5,6-7.6,9H58c-6.41-3.16-8.31-8.31-8.29-15.37,0.2-68.16.12-136.33,0.12-204.49,0-1.33,0-2.67,0-4,0.36-7,4.43-11.1,11.47-11.11q63.25-.08,126.5,0c6.93,0,11,4.26,11.28,11.31,0.12,3.12,0,6.25,0,9.74,12.84,0.3,23.3-3.77,32.14-12.26,4.19-4,8.36-8.11,12.82-11.84,19-15.94,36.06-33.62,48.23-55.49,8.77-15.76,15.17-32.06,13.66-50.77-0.86-10.6.1-21.33-.26-32a17.87,17.87,0,0,1,5-13.62c2.85-3,5.69-6.39,9.25-8.25C326,223.57,332.62,221.46,339,218.89Zm149,342c-1.56-.07-3.18-0.21-4.81-0.21-15.33,0-30.66,0-46,0a26.42,26.42,0,0,1-5.94-.52,10.46,10.46,0,0,1-.18-20.36,25,25,0,0,1,5.93-.57c18,0,36-.16,54,0.06a16.86,16.86,0,0,0,13.25-5.68c8.57-9.12,10.23-20.1,9-32-0.4-3.7-1.71-5-5.61-5-23.49.18-47,.11-70.48,0.06a25.05,25.05,0,0,1-6.42-.68,10.45,10.45,0,0,1,0-20.09,25.05,25.05,0,0,1,6.42-.67c24.66,0,49.32-.09,74,0,3.53,0,6.08-1,8-3.85,7-10.32,8.27-21.18,3-32.6-2-4.29-5.13-6.29-10.25-6.24-24.66.24-49.32,0.11-74,.11-9.57,0-14.93-4-14.78-10.94,0.14-6.81,5.33-10.53,14.67-10.55,27.16-.06,54.32-0.19,81.48-0.13,3.87,0,6.45-1.39,6.58-5.1,0.24-7.27.49-14.63-.4-21.81-0.85-6.82-5.59-11.44-12.26-13a78.85,78.85,0,0,0-16.74-2.23c-14.66-.3-29.32-0.1-44-0.1q-36.24,0-72.48,0c-8,0-12.54-2.58-13.53-8.34-0.51-3,.19-6.27,1-9.27,5.45-21.22,9.23-42.62,7.58-64.65-0.87-11.58-3.3-22.77-9.89-32.58-5.59-8.33-12.95-13.81-23.66-13.12-9.38.61-14.43,5.84-14.43,15.06,0,13.16.15,26.33-.08,39.49a50,50,0,0,1-1.81,12.76c-8.89,31.07-26.47,56.82-49.47,79-9,8.67-18.84,16.4-27.69,25.18-8.63,8.56-18.35,14.86-30.1,17.75-5.94,1.46-12.07,2.12-18.27,3.17V581.89c2.23,0,4.07.09,5.88,0,17.65-1,33.17,4,46.2,16.23,4.26,4,9.57,5,15.25,5,58.65,0,117.31.11,176-.21a58.72,58.72,0,0,0,20.33-4.14C478.49,592.83,489.26,575.86,488,560.86ZM71.54,411.34V602.6h105.9V411.34H71.54Z" transform="translate(-49.71 -218.89)"/></svg>