<svg xmlns="http://www.w3.org/2000/svg" viewBox="0 0 49.67 42"><title>list</title><path d="M48.67,42H1a1,1,0,0,1-1-1V1A1,1,0,0,1,1,0H48.67a1,1,0,0,1,1,1V41A1,1,0,0,1,48.67,42ZM2,40H47.67V2H2V40Z"/><path d="M28.17,12.58H8.83a1,1,0,0,1,0-2H28.17A1,1,0,0,1,28.17,12.58Z"/><path d="M28.17,22H8.83a1,1,0,0,1,0-2H28.17A1,1,0,1,1,28.17,22Z"/><path d="M28.17,31.42H8.83a1,1,0,1,1,0-2H28.17A1,1,0,0,1,28.17,31.42Z"/><path d="M37.58,15.58a1,1,0,0,1-.67-0.26l-4-3.58a1,1,0,1,1,1.33-1.49L37.37,13l3.12-5a1,1,0,1,1,1.7,1.06l-3.75,6a1,1,0,0,1-.71.46H37.58Z"/><path d="M37.58,25.67a1,1,0,0,1-.67-0.25l-4-3.58a1,1,0,1,1,1.33-1.49l3.12,2.79,3.12-5a1,1,0,1,1,1.7,1.06l-3.75,6a1,1,0,0,1-.71.46H37.58Z"/><path d="M37.58,35.75a1,1,0,0,1-.67-0.25l-4-3.58a1,1,0,0,1,1.33-1.49l3.12,2.79,3.12-5a1,1,0,1,1,1.7,1.06l-3.75,6a1,1,0,0,1-.71.46H37.58Z"/></svg>