<svg xmlns="http://www.w3.org/2000/svg" viewBox="0 0 435.49 392.14"><title>fff3</title><path d="M116,618.89a28.47,28.47,0,0,0-3.3-.92,38.43,38.43,0,0,1-32.77-37.78c-0.18-26.66-.06-53.33-0.06-80q0-116.49,0-233c0-20.54,12.3-35.94,31.62-39.77a49.07,49.07,0,0,1,9.44-.66q103.24-.05,206.48,0c23.62,0,40.34,16.65,40.41,40.21,0.08,29,0,58,0,87,0,1.32,0,2.63,0,4.37h-18c0-2,0-4,0-5.93q0-42,0-84c0-15.07-8.5-23.65-23.42-23.66q-102.49,0-205,0c-15.22,0-23.58,8.28-23.58,23.36q0,155,0,310c0,14.41,8.54,22.89,23,22.89q103,0,206,0c14.27,0,22.95-8.75,23-23.12q0-42.25,0-84.49c0-2,0-3.9,0-6.11h18c0,1.93,0,3.7,0,5.47q0,42,0,84c0,22.85-12.43,37.53-35,41.49a11.52,11.52,0,0,0-1.87.67H116Z" transform="translate(-79.83 -226.75)"/><path d="M482,412.86l-69.65-69.59,12.75-12L515.32,423,425,515l-12.06-12.21,69.57-69.34-0.73-1.35H199.45v-18h282Z" transform="translate(-79.83 -226.75)"/></svg>