<svg xmlns="http://www.w3.org/2000/svg" viewBox="0 0 37.25 55.83"><title>medal</title><path d="M18.63,55.83A18.63,18.63,0,1,1,37.25,37.21,18.65,18.65,0,0,1,18.63,55.83Zm0-35.25A16.62,16.62,0,1,0,35.25,37.21,16.64,16.64,0,0,0,18.63,20.58Z" transform="translate(0 0)"/><path d="M18.62,50.64A13.37,13.37,0,1,1,32,37.27,13.39,13.39,0,0,1,18.62,50.64Zm0-24.74A11.37,11.37,0,1,0,30,37.27,11.38,11.38,0,0,0,18.62,25.9Z" transform="translate(0 0)"/><rect x="14.93" y="31.33" width="6.83" height="2"/><rect x="14.93" y="40.92" width="6.83" height="2"/><rect x="17.35" y="32.33" width="2" height="9.58"/><path d="M11.77,21.44h-2V16.88a2.14,2.14,0,0,1,2.14-2.14H24.54a2.14,2.14,0,0,1,2.14,2.14v4.17h-2V16.88a0.14,0.14,0,0,0-.14-0.14H11.9a0.14,0.14,0,0,0-.14.14v4.55Z" transform="translate(0 0)"/><path d="M13,15.88a1,1,0,0,1-.85-0.47L3.46,1.53A1,1,0,0,1,5.15.47l8.71,13.88A1,1,0,0,1,13,15.88Z" transform="translate(0 0)"/><path d="M24.55,16.75a1,1,0,0,1-.86-1.51l8-13.58a1,1,0,1,1,1.72,1l-8,13.58A1,1,0,0,1,24.55,16.75Z" transform="translate(0 0)"/><path d="M13.05,16.58a1,1,0,0,1-.87-1.5L20,1.5a1,1,0,1,1,1.73,1L13.92,16.08A1,1,0,0,1,13.05,16.58Z" transform="translate(0 0)"/><path d="M18.22,6.92a1,1,0,0,1-.84-0.46L14.84,2.54a1,1,0,0,1,1.68-1.09l2.54,3.92A1,1,0,0,1,18.22,6.92Z" transform="translate(0 0)"/></svg>