<svg xmlns="http://www.w3.org/2000/svg" xmlns:xlink="http://www.w3.org/1999/xlink" viewBox="0 0 21 35"><path d="M10.5,0A9.21,9.21,0,0,0,1.14,9a9.21,9.21,0,0,0,9.36,9,9.21,9.21,0,0,0,9.35-9A9.21,9.21,0,0,0,10.5,0Zm0,5.29A3.81,3.81,0,0,1,14.37,9a3.81,3.81,0,0,1-3.87,3.74A3.81,3.81,0,0,1,6.63,9,3.81,3.81,0,0,1,10.5,5.29ZM2.79,18.37A2.77,2.77,0,0,0,.42,19.61a2.59,2.59,0,0,0,.86,3.65,17.91,17.91,0,0,0,5.43,2.17L1.48,30.48a2.59,2.59,0,0,0,0,3.74,2.81,2.81,0,0,0,3.88,0l5.14-5,5.14,5a2.81,2.81,0,0,0,3.87,0,2.58,2.58,0,0,0,0-3.74l-5.23-5a17.9,17.9,0,0,0,5.43-2.17,2.59,2.59,0,0,0,.86-3.65,2.8,2.8,0,0,0-3.78-.83,12.24,12.24,0,0,1-12.6,0,2.8,2.8,0,0,0-1.41-.41h0Z" transform="translate(0)" fill="#fff" fill-rule="evenodd"/></svg>