<svg xmlns="http://www.w3.org/2000/svg" viewBox="0 0 229.6 264.1"><title>fff1</title><path d="M232.43,407.4c-21.39-40.48-6.44-81.22,20-101.27,30.19-22.85,71-21.69,99.47,2.89,25.86,22.34,37.2,63.54,14.87,100.92,8.12,7.19,16.57,13.93,24.17,21.54,14.82,14.85,24,32.75,22.57,54.06-1.55,22.66-7.91,43.72-28.74,57-12.3,7.83-26.14,10.84-40.4,11q-43.47.58-86.95,0c-15.75-.23-31.12-2.81-44.33-12.66-14.26-10.63-21.17-25.72-25.87-42.13-9.46-33.08,3-58.45,28.22-79.23,2.69-2.22,5.56-4.23,8.4-6.27S229.36,409.51,232.43,407.4Zm126.69,12c-1.59,1.5-2.65,2.56-3.76,3.55-19.41,17.27-41.62,26.18-67.85,21.66-16.1-2.77-30-10.71-42.75-20.6-8-6.22-8.15-6.35-16.32-.11A127.29,127.29,0,0,0,214,436.23c-20.45,21.17-23.61,43.36-11.54,72.12,9.25,22,25.89,33.08,49.16,33.51,32.31,0.6,64.65.49,97,0,13.94-.2,27.42-4.1,37.15-14.7,16.12-17.57,20.49-38.73,13.7-61.27C393.13,444.88,376.6,431.8,359.12,419.4ZM233.55,368c0,37,29.72,67,66.45,67,37.41,0,67.21-29.51,67.22-66.65,0-37.37-29.51-67.25-66.59-67.4A67,67,0,0,0,233.55,368Z" transform="translate(-184.11 -289.76)"/></svg>