<svg xmlns="http://www.w3.org/2000/svg" xmlns:xlink="http://www.w3.org/1999/xlink" viewBox="0 0 41 23"><path d="M40.78,20.77a2.45,2.45,0,0,0-.14-0.26,20.93,20.93,0,0,0-4.08-4.64l0,0,0,0,0,0h0a24.25,24.25,0,0,1-1.73-1.72,1.59,1.59,0,0,1-.3-1.7,15.82,15.82,0,0,1,1.92-2.75q0.87-1.11,1.39-1.78,3.7-4.83,3.2-6.17l-0.13-.21a1.25,1.25,0,0,0-.66-0.35,3.39,3.39,0,0,0-1.37-.05l-6.15,0a0.81,0.81,0,0,0-.43,0l-0.28.06-0.11.05-0.09.06a1,1,0,0,0-.23.22,1.46,1.46,0,0,0-.21.37A33.75,33.75,0,0,1,29,6.59q-0.79,1.3-1.45,2.26a10.85,10.85,0,0,1-1.11,1.41,7.7,7.7,0,0,1-.81.72,0.79,0.79,0,0,1-.55.23l-0.36-.08a1.39,1.39,0,0,1-.48-0.51A2.27,2.27,0,0,1,24,9.8c0-.33-0.07-0.61-0.07-0.85s0-.57,0-1,0-.73,0-0.88q0-.8,0-1.73c0-.62,0-1.12.06-1.48s0-.75,0-1.15a4.64,4.64,0,0,0-.07-1,3.14,3.14,0,0,0-.22-0.67,1.14,1.14,0,0,0-.44-0.5A2.48,2.48,0,0,0,22.61.28,14.35,14.35,0,0,0,19.73,0q-4,0-5.1.5a2.86,2.86,0,0,0-.81.63c-0.26.31-.29,0.48-0.11,0.5a2.63,2.63,0,0,1,1.81.9l0.13,0.25a3.89,3.89,0,0,1,.3,1,9.43,9.43,0,0,1,.19,1.53,15.72,15.72,0,0,1,0,2.62Q16,9,15.93,9.62a3.33,3.33,0,0,1-.29,1,4,4,0,0,1-.26.46,0.38,0.38,0,0,1-.11.1,1.64,1.64,0,0,1-.58.1A1.36,1.36,0,0,1,14,11a5.17,5.17,0,0,1-.89-0.81,10.94,10.94,0,0,1-1-1.44q-0.58-.92-1.19-2.18l-0.34-.61Q10.2,5.36,9.65,4.23t-1-2.17a1.39,1.39,0,0,0-.51-0.67L8,1.32a1.51,1.51,0,0,0-.34-0.18A2.21,2.21,0,0,0,7.22,1l-5.85,0a1.5,1.5,0,0,0-1.22.4l-0.08.13A0.65,0.65,0,0,0,0,1.91a1.63,1.63,0,0,0,.13.57q1.28,3,2.79,5.71t2.62,4.43q1.11,1.68,2.26,3.17T9.32,17.7c0.25,0.28.45,0.49,0.59,0.63l0.53,0.5A12.69,12.69,0,0,0,11.94,20q1,0.7,2.2,1.39a12,12,0,0,0,2.81,1.11,9.83,9.83,0,0,0,3.12.35h2.46a1.72,1.72,0,0,0,1.13-.46l0.08-.11a1.33,1.33,0,0,0,.16-0.39A2,2,0,0,0,24,21.35a6.75,6.75,0,0,1,.14-1.63,4.25,4.25,0,0,1,.36-1.09A2.66,2.66,0,0,1,24.93,18a1.82,1.82,0,0,1,.36-0.3l0.17-.07a1.37,1.37,0,0,1,1.21.33A7.08,7.08,0,0,1,28,19.18q0.61,0.72,1.46,1.63a9.94,9.94,0,0,0,1.49,1.34l0.43,0.25a5.27,5.27,0,0,0,1.11.46,2.43,2.43,0,0,0,1.2.1l5.46-.08a2.52,2.52,0,0,0,1.26-.26A1,1,0,0,0,40.92,22a1.62,1.62,0,0,0,0-.71A2.64,2.64,0,0,0,40.78,20.77Z" fill="#fff" fill-rule="evenodd"/></svg>