<?xml version="1.0" encoding="UTF-8" standalone="no"?>
<svg width="112px" height="20px" viewBox="0 0 112 20" version="1.1" xmlns="http://www.w3.org/2000/svg" xmlns:xlink="http://www.w3.org/1999/xlink">
    <!-- Generator: Sketch 49.3 (51167) - http://www.bohemiancoding.com/sketch -->
    <title>11</title>
    <desc>Created with Sketch.</desc>
    <defs></defs>
    <g id="Page-1" stroke="none" stroke-width="1" fill="none" fill-rule="evenodd">
        <g id="11" fill-rule="nonzero">
            <rect id="Rectangle-path" fill="#FFFFFF" x="0" y="0" width="108.7" height="19.2"></rect>
            <rect id="Rectangle-path" fill="#231F20" x="19.5" y="0.5" width="88.7" height="18.3"></rect>
            <g id="Group">
                <path d="M26.9,4.7 C27.2,4.6 27.6,4.6 27.9,4.6 C28.3,4.6 28.7,4.7 29.1,4.9 C29.5,5.1 29.7,5.4 29.9,5.8 C30.1,6.2 30.2,6.7 30.2,7.2 C30.2,7.8 30,8.5 29.6,8.9 C29.2,9.3 28.7,9.6 28.2,9.6 L27.6,9.6 C27.4,9.6 27.2,9.5 26.9,9.5 L26.9,4.7 Z M30.3,3.8 C29.5,3.5 28.6,3.4 27.7,3.5 L23.2,3.5 L23.2,4.2 L23.8,4.2 C24.1,4.2 24.5,4.3 24.7,4.5 C24.8,4.6 24.9,4.9 24.9,5.8 L24.9,13.5 C24.9,13.9 24.9,14.3 24.8,14.7 C24.6,15 24.2,15.2 23.9,15.1 L23.3,15.1 L23.3,15.8 L28.7,15.8 L28.7,15.1 L28,15.1 C27.7,15.1 27.3,15 27.1,14.8 C27,14.7 26.9,14.4 26.9,13.5 L26.9,10.2 C27.2,10.3 27.5,10.3 27.8,10.3 C28.1,10.3 28.4,10.4 28.8,10.4 C29.8,10.4 30.8,10.1 31.6,9.4 C32.3,8.7 32.6,7.8 32.6,6.9 C32.6,6.2 32.4,5.5 31.9,4.9 C31.5,4.4 30.9,4 30.3,3.8 Z" id="Shape" fill="#FFFFFF"></path>
                <path d="M43.6,3.4 L43.6,4.1 L44.2,4.1 C44.5,4.1 44.8,4.2 45.1,4.4 C45.2,4.5 45.3,4.8 45.3,5.7 L45.3,10.5 C45.4,11.4 45.3,12.3 45,13.1 C44.8,13.6 44.3,14.1 43.8,14.3 C43.2,14.6 42.5,14.8 41.8,14.8 C41.3,14.8 40.8,14.7 40.3,14.5 C39.9,14.3 39.6,14.1 39.4,13.7 C39.2,13.3 39,12.8 39,12.4 C38.9,11.9 38.9,11.4 38.9,10.8 L38.9,5.7 C38.8,5.3 38.9,4.9 39,4.5 C39.2,4.2 39.5,4.1 39.9,4.1 L40.5,4.1 L40.5,3.4 L35.1,3.4 L35.1,4.1 L35.7,4.1 C36,4.1 36.3,4.2 36.5,4.4 C36.7,4.8 36.8,5.3 36.8,5.7 L36.8,10.4 C36.7,11.4 36.9,12.4 37.1,13.4 C37.4,14.2 37.9,14.8 38.6,15.3 C39.5,15.8 40.6,16.1 41.7,16 C42.7,16 43.8,15.8 44.6,15.3 C45.3,14.9 45.8,14.3 46,13.5 C46.3,12.6 46.4,11.6 46.4,10.7 L46.4,5.8 C46.4,5.4 46.4,5 46.6,4.6 C46.8,4.3 47.1,4.1 47.5,4.1 L48.1,4.1 L48.1,3.4 L43.6,3.4 Z" id="Shape" fill="#FFFFFF"></path>
                <path d="M54.9,4.7 C55.3,4.6 55.7,4.6 56.1,4.5 C56.7,4.5 57.4,4.7 57.8,5.2 C58.2,5.6 58.5,6.3 58.4,6.9 C58.4,7.6 58.1,8.2 57.6,8.7 C56.9,9.2 56,9.5 55.2,9.4 L54.9,9.4 L54.9,4.7 Z M61.7,14.7 C61.1,14.3 60.7,13.8 60.3,13.2 L58,9.9 C58.8,9.7 59.5,9.3 60,8.8 C60.5,8.2 60.8,7.5 60.8,6.8 C60.8,6.1 60.6,5.4 60.1,4.9 C59.7,4.4 59.1,4 58.5,3.8 C57.6,3.6 56.6,3.5 55.6,3.5 L51.1,3.5 L51.1,4.2 L51.7,4.2 C52,4.2 52.4,4.3 52.6,4.5 C52.7,4.6 52.8,4.9 52.8,5.8 L52.8,13.5 C52.9,13.9 52.8,14.3 52.6,14.7 C52.4,15 52,15.2 51.7,15.1 L51.1,15.1 L51.1,15.8 L56.5,15.8 L56.5,15.1 L55.9,15.1 C55.6,15.1 55.3,15 55,14.8 C54.9,14.7 54.8,14.4 54.8,13.5 L54.8,10.2 L55.8,10.2 L59.8,15.8 L63.3,15.8 L63.3,15.2 L63.1,15.2 C62.7,15.1 62.2,14.9 61.7,14.7 Z" id="Shape" fill="#FFFFFF"></path>
                <path d="M66.4,3.5 L66.4,4.2 L67,4.2 C67.3,4.2 67.5,4.3 67.7,4.4 C67.8,4.5 67.9,4.6 68,4.7 C68.1,5.1 68.1,5.5 68.1,5.8 L68.1,13.5 C68.1,14.4 68,14.7 67.9,14.8 C67.7,15.1 67.3,15.2 67,15.2 L66.4,15.2 L66.4,15.9 L71.8,15.9 L71.8,15.2 L71.2,15.2 C71,15.2 70.7,15.1 70.5,15 C70.4,14.9 70.3,14.8 70.2,14.7 C70.1,14.3 70.1,13.9 70.1,13.6 L70.1,5.8 C70.1,4.9 70.2,4.6 70.3,4.6 C70.5,4.3 70.9,4.2 71.2,4.2 L71.8,4.2 L71.8,3.5 L66.4,3.5 Z" id="Shape" fill="#FFFFFF"></path>
                <path d="M89.3,3.5 L84.8,3.5 L84.8,4.2 L85.4,4.2 C85.7,4.2 86.1,4.3 86.3,4.5 C86.4,4.6 86.5,4.9 86.5,5.8 L86.5,12.2 L79.4,3.6 L75.9,3.6 L75.9,4.3 L76.1,4.3 C76.3,4.3 76.6,4.3 76.8,4.4 C77.1,4.5 77.3,4.6 77.5,4.7 C77.8,4.8 78,5 78.2,5.3 L78.2,13.5 C78.2,13.9 78.2,14.3 78,14.7 C77.8,15 77.4,15.1 77,15.1 L76.4,15.1 L76.4,15.8 L81,15.8 L81,15.1 L80.4,15.1 C80.1,15.1 79.7,15 79.5,14.8 C79.4,14.7 79.3,14.4 79.3,13.5 L79.3,6.7 L87,16 L87.6,16 L87.6,5.8 C87.6,5 87.7,4.7 87.8,4.6 C88,4.3 88.4,4.2 88.7,4.2 L89.3,4.2 L89.3,3.5 Z" id="Shape" fill="#FFFFFF"></path>
                <path d="M97.6,6.6 L99.3,10.8 L95.7,10.8 L97.6,6.6 Z M104.4,15.1 C104,15.1 103.7,15 103.4,14.7 C103,14.3 102.7,13.8 102.5,13.2 L98.4,3.2 L97.8,3.2 L93.4,13.1 C93.2,13.7 92.8,14.3 92.4,14.8 C92.1,15 91.8,15.1 91.5,15.1 L91.4,15.1 L91.4,15.7 L95.5,15.7 L95.5,15 L95.3,15 C95,15 94.6,14.9 94.3,14.8 C94.2,14.7 94.1,14.6 94.1,14.5 C94.1,14.2 94.2,13.8 94.4,13.5 L95.2,11.7 L99.6,11.7 L100.3,13.3 C100.5,13.7 100.6,14 100.6,14.4 C100.6,14.5 100.5,14.7 100.4,14.8 C100.1,14.9 99.8,15 99.5,15 L99.3,15 L99.3,15.7 L104.4,15.7 L104.4,15.1 Z" id="Shape" fill="#FFFFFF"></path>
                <rect id="Rectangle-path" fill="#EB2227" x="0.5" y="0.5" width="18.3" height="18.3"></rect>
                <rect id="Rectangle-path" fill="#FFFFFF" x="1.2" y="1.1" width="17" height="17"></rect>
                <rect id="Rectangle-path" fill="#EB2227" x="1.8" y="12.2" width="5.2" height="5.2"></rect>
                <rect id="Rectangle-path" fill="#EB2227" x="12.3" y="12.2" width="5.2" height="5.2"></rect>
                <rect id="Rectangle-path" fill="#EB2227" x="7.1" y="7" width="5.2" height="5.2"></rect>
                <rect id="Rectangle-path" fill="#EB2227" x="1.8" y="1.8" width="5.2" height="5.2"></rect>
                <rect id="Rectangle-path" fill="#EB2227" x="12.3" y="1.8" width="5.2" height="5.2"></rect>
                <path d="M110.4,1.4 C110.6,1.4 110.7,1.4 110.7,1.2 C110.7,1 110.6,1 110.5,1 L110.4,1 L110.4,1.4 Z M110.4,2 L110.2,2 L110.2,0.9 C110.3,0.9 110.5,0.9 110.6,0.9 C110.7,0.9 110.9,0.9 111,1 C111.1,1.1 111.1,1.1 111.1,1.2 C111.1,1.3 111,1.4 110.9,1.5 C111,1.5 111.1,1.6 111.1,1.8 C111.1,1.9 111.1,2 111.2,2.1 L110.9,2.1 C110.9,2 110.8,1.9 110.8,1.8 C110.8,1.7 110.7,1.6 110.6,1.6 L110.5,1.6 L110.4,2 Z M109.8,1.4 C109.7,1.9 110.1,2.3 110.5,2.3 C111,2.4 111.4,2 111.4,1.6 C111.4,1.5 111.4,1.5 111.4,1.4 C111.5,0.9 111.1,0.5 110.7,0.5 C110.3,0.5 109.8,0.8 109.8,1.2 C109.7,1.3 109.7,1.4 109.8,1.4 Z M111.8,1.4 C111.7,2 111.2,2.5 110.6,2.4 C110.1,2.3 109.6,1.9 109.6,1.4 C109.7,0.8 110.2,0.3 110.8,0.4 C111.3,0.5 111.7,0.9 111.8,1.4 Z" id="Shape" fill="#FFFFFF"></path>
            </g>
        </g>
    </g>
</svg>